<svg xmlns="http://www.w3.org/2000/svg" width="1024" height="1024" viewBox="0 0 1024 1024">
  <path fill="none" stroke="#F00" opacity=".16" d="M512 64.496a447.504 447.504 0 000 895.008 447.504 447.504 0 000-895.008M512 235.427a276.573 276.573 0 000 553.146 276.573 276.573 0 000-553.146M512 316.433a195.567 195.567 0 000 391.134 195.567 195.567 0 000-391.134M0 0l1024 1024m0-1024L0 1024M64.496 0v1024M316.433 0v1024M512 0v1024M707.567 0v1024M959.504 0v1024M0 64.496h1024M0 316.433h1024M0 512h1024M0 707.567h1024M0 959.504h1024" />
  <!-- <path stroke="#F00" stroke-width="2" stroke-dasharray="8 8" opacity=".32"
    d="
      M357.881140 204.853543
      l-189.826953 614.292914
      M338.985664 204.853543
      l189.826953 614.292914
      M348.433402 643.566598
      l-158.122053 0
      M348.433402 643.566598
      l158.122053 0
      M348.433402 707.566598
      l-177.899143 0
      M348.433402 707.566598
      l177.899143 0

      M348.433402 788.572935
      l-202.931478 0
      M348.433402 788.572935
      l202.931478 0
      M391.374174 313.239276
      l-156.333918 505.907181
      M305.492630 313.239276
      l156.333918 505.907181
    "
  /> -->
  <g fill="none" stroke="#333" stroke-width="4">
    <path
      d="
        M348.433402 235.427065
        l170.931477 553.145870
        h-66.986067
        l-25.0323350 -81.006337
        h-157.826151
        l-25.0323350 81.006337
        h-66.986067
        z
        M348.433402 452.198529
        l-59.135986 191.368069
        h118.271972
        z
      "
    />
    <path
      d="
        M675.566598 243.427065
        h170.931477
        v64
        h-138.931477
        v481.14587
        h-64
        v-481.14587
        h-138.931477
        v-64
        z
      "
    />

  </g>
</svg>
