<svg
  xmlns="http://www.w3.org/2000/svg"
  width="1024"
  height="1024"
  viewBox="0 0 1024 1024"
>
  <path
    class="golden-ratio-base"
    fill="#F00"
    stroke="#F00"
    opacity=".64"
    d="
      M195.566598 0v512
      M316.433402 0v512
      M512 0v512
      M0 195.566598h512
      M0 316.433402h512
      M0 512h512

      M195.566598 187.566598
      a8 8 0 0 0 0 16
      a8 8 0 0 0 0-16
      M316.433402 308.433402
      a8 8 0 0 0 0 16
      a8 8 0 0 0 0-16
      M373.713532 369.713532
      a4 4 0 0 0 0 8
      a4 4 0 0 0 0-8
      M512 504
      a8 8 0 0 0 0 16
      a8 8 0 0 0 0-16
    "
  />

  <g
    class="icon-guide"
    fill="none"
    stroke="#000"
  >
    <path
      d="
        M512 64.495591
        a447.504409 447.504409 0 0 0 0 895.008818
        a447.504409 447.504409 0 0 0 0-895.008818
      "
    />
    <path
      d="
        M512 235.427065
        a276.572935 276.572935 0 0 0 0 553.145870
        a276.572935 276.572935 0 0 0 0-553.145870
      "
    />
    <path
      opacity=".32"
      d="
        M512 316.433402
        a195.566598 195.566598 0 0 0 0 391.133196
        a195.566598 195.566598 0 0 0 0-391.133196
      "
    />
    <path
      opacity=".32"
      d="
        M0 0L1024 1024
        M1024 0L0 1024
      "
    />
    <path
      opacity=".32"
      d="
        M 64.495591 0v1024
        M316.433402 0v1024
        M512        0v1024
        M707.566598 0v1024
        M959.504409 0v1024
      "
    />
    <path
      opacity=".32"
      d="
        M0  64.495591 h1024
        M0 316.433402 h1024
        M0 512        h1024
        M0 707.566598 h1024
        M0 959.504409 h1024
      "
    />
  </g>
</svg>
