<svg xmlns="http://www.w3.org/2000/svg" width="1024" height="1024" viewBox="0 0 1024 1024"><path fill="none" stroke="#000" opacity=".32" d="M512 64.496a447.504 447.504 0 000 895.008 447.504 447.504 0 000-895.008M512 235.427a276.573 276.573 0 000 553.146 276.573 276.573 0 000-553.146M512 316.433a195.567 195.567 0 000 391.134 195.567 195.567 0 000-391.134M0 0l1024 1024m0-1024L0 1024M64.496 0v1024M316.433 0v1024M512 0v1024M707.567 0v1024M959.504 0v1024M0 64.496h1024M0 316.433h1024M0 512h1024M0 707.567h1024M0 959.504h1024" /></svg>
